HIERARCHY
ROOT Hips
{
	OFFSET 0.000000 0.000000 0.000000
	CHANNELS 6 Xposition Yposition Zposition Xrotation Yrotation Zrotation
	JOINT LeftUpLeg_virtual
	{
		OFFSET 0.000000 0.000000 0.000000
		CHANNELS 3 Xrotation Yrotation Zrotation
		JOINT LeftUpLeg
		{
			OFFSET 13.026900 -6.336304 -1.092800
			CHANNELS 3 Xrotation Yrotation Zrotation
			JOINT LeftLeg
			{
				OFFSET 0.524474 -46.096886 9.782700
				CHANNELS 3 Xrotation Yrotation Zrotation
				JOINT LeftFoot
				{
					OFFSET -0.524474 -53.427422 -12.948200
					CHANNELS 3 Xrotation Yrotation Zrotation
					JOINT LeftToeBase
					{
						OFFSET 0.192200 -14.009700 16.364100
						CHANNELS 3 Xrotation Yrotation Zrotation
						JOINT LeftToe_End
						{
							OFFSET -1.784700 -0.561700 9.474800
							CHANNELS 3 Xrotation Yrotation Zrotation
							End Site
							{
								OFFSET 0 0 0
							}
						}
					}
				}
			}
		}
	}
	JOINT RightUpLeg_virtual
	{
		OFFSET 0.000000 0.000000 0.000000
		CHANNELS 3 Xrotation Yrotation Zrotation
		JOINT RightUpLeg
		{
			OFFSET -12.883000 -6.336304 -1.092800
			CHANNELS 3 Xrotation Yrotation Zrotation
			JOINT RightLeg
			{
				OFFSET -0.524587 -46.096825 9.782800
				CHANNELS 3 Xrotation Yrotation Zrotation
				JOINT RightFoot
				{
					OFFSET 0.524587 -53.427383 -12.948300
					CHANNELS 3 Xrotation Yrotation Zrotation
					JOINT RightToeBase
					{
						OFFSET -0.192200 -14.009700 16.364100
						CHANNELS 3 Xrotation Yrotation Zrotation
						JOINT RightToe_End
						{
							OFFSET 1.784700 -0.561700 9.474800
							CHANNELS 3 Xrotation Yrotation Zrotation
							End Site
							{
								OFFSET 0 0 0
							}
						}
					}
				}
			}
		}
	}
	JOINT Spine_virtual
	{
		OFFSET 0.000000 0.000000 0.000000
		CHANNELS 3 Xrotation Yrotation Zrotation
		JOINT Spine
		{
			OFFSET 0.072000 7.257294 -0.789700
			CHANNELS 3 Xrotation Yrotation Zrotation
			JOINT Spine1
			{
				OFFSET 0.000000 12.508769 -0.658067
				CHANNELS 3 Xrotation Yrotation Zrotation
				JOINT Spine1_split
				{
					OFFSET 0.000000 12.508769 -0.658067
					CHANNELS 3 Xrotation Yrotation Zrotation
					JOINT Spine2
					{
						OFFSET 0.000000 12.508769 -0.658067
						CHANNELS 3 Xrotation Yrotation Zrotation
						JOINT Neck_virtual
						{
							OFFSET 0.000000 0.000000 0.000000
							CHANNELS 3 Xrotation Yrotation Zrotation
							JOINT Neck
							{
								OFFSET 0.000000 14.033295 7.520400
								CHANNELS 3 Xrotation Yrotation Zrotation
								JOINT Head
								{
									OFFSET 0.000000 8.198502 5.703100
									CHANNELS 3 Xrotation Yrotation Zrotation
									JOINT HeadTop_End
									{
										OFFSET 0.000000 17.760803 13.332701
										CHANNELS 3 Xrotation Yrotation Zrotation
										End Site
										{
											OFFSET 0 0 0
										}
									}
								}
							}
						}
						JOINT LeftShoulder_virtual
						{
							OFFSET 0.000000 0.000000 0.000000
							CHANNELS 3 Xrotation Yrotation Zrotation
							JOINT LeftShoulder
							{
								OFFSET 6.292450 5.785301 -0.669000
								CHANNELS 3 Xrotation Yrotation Zrotation
								JOINT LeftShoulder_split
								{
									OFFSET 6.292450 5.785301 -0.669000
									CHANNELS 3 Xrotation Yrotation Zrotation
									JOINT LeftArm
									{
										OFFSET 13.907140 -6.093903 1.965100
										CHANNELS 3 Xrotation Yrotation Zrotation
										JOINT LeftForeArm
										{
											OFFSET 34.140198 0.000000 0.000000
											CHANNELS 3 Xrotation Yrotation Zrotation
											JOINT LeftHand
											{
												OFFSET 40.960209 0.000000 0.000000
												CHANNELS 3 Xrotation Yrotation Zrotation
												End Site
												{
													OFFSET 0 0 0
												}
											}
										}
									}
								}
							}
						}
						JOINT RightShoulder_virtual
						{
							OFFSET 0.000000 0.000000 0.000000
							CHANNELS 3 Xrotation Yrotation Zrotation
							JOINT RightShoulder
							{
								OFFSET -6.292450 5.785301 -0.669000
								CHANNELS 3 Xrotation Yrotation Zrotation
								JOINT RightShoulder_split
								{
									OFFSET -6.292450 5.785301 -0.669000
									CHANNELS 3 Xrotation Yrotation Zrotation
									JOINT RightArm
									{
										OFFSET -13.907140 -6.093903 1.965100
										CHANNELS 3 Xrotation Yrotation Zrotation
										JOINT RightForeArm
										{
											OFFSET -34.140198 0.000000 0.000000
											CHANNELS 3 Xrotation Yrotation Zrotation
											JOINT RightHand
											{
												OFFSET -40.960209 0.000000 0.000000
												CHANNELS 3 Xrotation Yrotation Zrotation
												End Site
												{
													OFFSET 0 0 0
												}
											}
										}
									}
								}
							}
						}
					}
				}
			}
		}
	}
}
MOTION
Frames: 6
Frame Time: 0.03333333
-0.931214 114.110123 2.159996 0.000000 0.000000 0.000000 -40.879013 -82.783600 -39.510780 -14.864686 15.785431 8.873778 24.335242 0.188888 2.093490 -2.495971 1.392382 -7.568367 -4.517885 -0.252011 -0.591815 0.000000 0.000000 0.000000 -28.948278 -81.993812 -28.585713 -12.132432 -24.081367 -5.590546 22.454510 8.501564 -8.415192 -3.117529 -1.223420 9.141690 -0.166230 -0.216698 0.283053 0.000000 0.000000 0.000000 -40.349291 -81.319317 -39.724879 3.293838 0.524375 1.810760 3.867856 0.236857 1.904295 0.642394 5.750834 -0.520145 0.000000 0.000000 0.000000 3.984367 -0.236454 1.525690 -6.398638 6.657066 -3.258030 5.392635 36.776187 -3.323648 0.000000 0.000000 0.000000 5.424737 0.300061 1.627109 0.715549 5.178568 0.344696 -1.077389 0.226565 -0.672427 8.887248 -80.192855 -54.268397 -2.058419 -23.852516 -0.301761 0.000000 0.000000 0.000000 6.501272 0.824645 1.155593 1.165659 3.374834 7.446862 2.912110 4.118728 -0.475872 13.637706 27.807274 59.476427 1.223048 30.976612 0.101982 0.000000 0.000000 0.000000 
-0.820471 114.105911 2.225349 0.000000 0.000000 0.000000 -41.936808 -82.755241 -40.511877 -14.544686 15.813696 8.858895 24.486334 -0.006896 2.165669 -2.832326 1.494922 -7.086571 -4.026318 -0.207580 -0.750570 0.000000 0.000000 0.000000 -29.034718 -81.781120 -28.650188 -12.168805 -23.995669 -5.570724 22.407100 8.392687 -8.354097 -2.818645 -1.368512 9.028534 -0.175301 -0.247670 0.329866 0.000000 0.000000 0.000000 -40.810223 -81.195069 -40.187897 3.364053 0.405165 1.874898 3.855622 0.211074 1.911402 0.874648 4.415682 -0.246274 0.000000 0.000000 0.000000 3.941405 -0.198619 1.552803 -6.564194 6.580689 -3.290505 5.349659 36.562221 -3.446880 0.000000 0.000000 0.000000 5.425639 0.286069 1.678057 0.675175 4.964573 0.270924 -1.041865 0.332475 -0.414485 11.212073 -80.276921 -52.116888 -2.329455 -24.159216 -0.652405 0.000000 0.000000 0.000000 6.525682 0.859090 1.253707 1.284155 3.155102 7.318516 2.963604 4.132874 -0.639168 13.822090 27.854406 59.248175 1.261929 31.717271 -0.065739 0.000000 0.000000 0.000000 
-0.640999 114.038170 2.162212 0.000000 0.000000 0.000000 -42.896197 -82.611322 -41.456161 -14.349736 16.030425 8.836902 24.660598 -0.368166 2.356698 -3.313360 1.441080 -6.908234 -3.237284 -0.133403 -0.918234 0.000000 0.000000 0.000000 -30.205463 -81.455784 -29.761890 -12.063567 -23.868854 -5.518852 22.630850 8.402113 -8.311162 -2.601590 -1.359529 9.239165 -0.358229 -0.308420 0.279365 0.000000 0.000000 0.000000 -41.378382 -81.063800 -40.747406 3.569624 0.157272 2.047576 3.835282 0.113666 1.911352 0.833232 3.393545 -0.096890 0.000000 0.000000 0.000000 3.988364 -0.244214 1.632538 -6.854512 6.618931 -3.450626 5.212827 36.610343 -3.648435 0.000000 0.000000 0.000000 5.516941 0.194666 1.748609 0.673752 4.823687 0.204695 -0.940683 0.887745 -0.535538 15.873028 -80.286026 -47.861605 -2.427721 -24.794469 -0.974520 0.000000 0.000000 0.000000 6.498902 0.777564 1.374495 1.423624 2.901568 7.074403 3.040103 4.406824 -0.632810 13.973122 27.712415 59.304477 1.280138 33.196038 -0.216555 0.000000 0.000000 0.000000 
-0.409494 113.912247 1.976135 0.000000 0.000000 0.000000 -43.480626 -82.409688 -42.022377 -14.237864 16.487441 8.755803 24.762965 -0.860503 2.636061 -3.768229 1.172245 -7.127668 -3.005919 -0.076797 -0.870381 0.000000 0.000000 0.000000 -31.765127 -81.160064 -31.221355 -11.918866 -23.619832 -5.499151 23.015253 8.557570 -8.295487 -2.601756 -1.151931 9.667750 -0.470661 -0.372692 0.154788 0.000000 0.000000 0.000000 -42.005800 -80.985307 -41.306501 3.844674 -0.159002 2.228206 3.810465 0.022215 1.899219 0.769099 2.742888 -0.184919 0.000000 0.000000 0.000000 4.105987 -0.321508 1.728882 -7.151127 6.737514 -3.726039 4.962910 36.841351 -3.896517 0.000000 0.000000 0.000000 5.646362 0.093517 1.829275 0.696923 4.774870 0.158186 -0.852316 1.565343 -0.854787 21.642160 -80.229232 -42.570872 -2.299657 -25.324709 -1.193032 0.000000 0.000000 0.000000 6.432733 0.649010 1.482277 1.541183 2.721185 6.819575 3.188896 4.860118 -0.566690 13.943392 27.409037 59.623959 1.267096 34.819031 -0.331416 0.000000 0.000000 0.000000 
-0.147882 113.815460 1.745289 0.000000 0.000000 0.000000 -44.213358 -82.358025 -42.657513 -14.004920 17.126262 8.502524 24.686356 -1.306694 2.995698 -4.267563 0.812268 -7.413785 -3.579259 -0.051033 -0.570777 0.000000 0.000000 0.000000 -33.038523 -81.065651 -32.339791 -11.676500 -23.214741 -5.476248 23.251571 8.806334 -8.330479 -2.952090 -0.856816 9.940680 -0.314866 -0.416332 0.000075 0.000000 0.000000 0.000000 -43.371691 -81.131022 -42.521944 4.106158 -0.463390 2.272076 3.793591 0.014897 1.880683 0.940879 2.510922 -0.329211 0.000000 0.000000 0.000000 4.265889 -0.347970 1.806622 -7.321305 6.930989 -4.017177 4.598581 37.249396 -4.198740 0.000000 0.000000 0.000000 5.756819 0.067106 1.897519 0.727580 4.787009 0.079865 -0.911310 1.929453 -1.253940 26.438549 -80.084952 -38.093140 -1.877946 -25.610737 -1.224993 0.000000 0.000000 0.000000 6.345785 0.557205 1.553510 1.619580 2.634992 6.720035 3.256431 5.345040 -0.556819 13.573400 26.938285 60.163496 1.223612 36.155039 -0.396336 0.000000 0.000000 0.000000 
0.136652 113.776825 1.568077 0.000000 0.000000 0.000000 -44.353090 -82.542959 -42.623700 -13.748442 17.844708 8.087071 24.405004 -1.503449 3.412356 -4.871136 0.568270 -7.435949 -4.156787 -0.051150 -0.225235 0.000000 0.000000 0.000000 -33.285981 -81.275194 -32.399976 -11.483964 -22.616486 -5.474598 23.174676 9.039120 -8.412049 -3.518411 -0.631567 9.825340 -0.035331 -0.426419 -0.140361 0.000000 0.000000 0.000000 -45.829517 -81.484403 -44.733463 4.267991 -0.674614 2.095701 3.791091 0.155357 1.854526 1.050479 2.756960 -0.303795 0.000000 0.000000 0.000000 4.434485 -0.257181 1.829636 -7.281787 7.176201 -4.287374 4.075512 37.702118 -4.533233 0.000000 0.000000 0.000000 5.789950 0.177469 1.931125 0.749418 4.795531 -0.076501 -1.036390 1.847862 -1.558979 28.672615 -79.817905 -35.839406 -1.188535 -25.705536 -1.046856 0.000000 0.000000 0.000000 6.258990 0.597347 1.563903 1.660848 2.677373 6.840712 3.302610 5.688341 -0.485485 12.806617 26.315498 60.801374 1.131828 37.026121 -0.395855 0.000000 0.000000 0.000000 
